<?xml version="1.0" encoding="UTF-8"?>
<!DOCTYPE svg PUBLIC "-//W3C//DTD SVG 1.1//EN" "http://www.w3.org/Graphics/SVG/1.1/DTD/svg11.dtd">
<svg version="1.1" xmlns="http://www.w3.org/2000/svg" xmlns:xlink="http://www.w3.org/1999/xlink" width="560" height="560"  xml:space="preserve">
    <g id="b8b8b8d9">
        <path id="bezier" stroke="none" fill="rgb(169, 169, 169)" fill-opacity="0.85" d="M 0,0 L 682.67,0 682.67,682.67 0,682.67 0,0 Z M 1.35,1.35 C 1.32,228 1.32,454.65 1.35,681.31 228,681.35 454.67,681.35 681.32,681.32 681.35,454.67 681.35,228 681.32,1.35 454.65,1.32 228,1.32 1.35,1.35 Z M 1.35,1.35" />
    </g>
    <g id="ffffffff">
    </g>
    <g id="group">
        <g id="cae473ff">
            <path id="bezier2" stroke="none" fill="rgb(191, 225, 96)" d="M 233.73,13.04 C 244.68,8.37 256.11,4.32 268.07,3.56 282.76,2.61 297.89,2.88 311.92,7.81 321.32,11.16 330.87,14.68 338.85,20.83 395.11,64.57 451.51,108.16 507.89,151.75 522.19,162.37 531.32,179.56 532.28,197.33 532.37,213.35 525.48,229.15 513.8,240.11 508.47,245.31 502.43,249.71 496.51,254.21 447.51,292.36 398.31,330.24 349.27,368.31 338.61,377.05 326.81,384.64 313.56,388.73 281.08,398.88 243.15,394.31 215.97,373.05 176.15,342.2 136.24,311.44 96.43,280.56 79.24,267.01 61.49,254.12 44.73,240.05 34.65,229.72 28.4,215.67 27.11,201.31 26.44,184.04 34.29,166.91 47.03,155.35 53.59,149.39 60.85,144.28 67.81,138.8 113.92,103.12 159.96,67.37 206.13,31.8 215.01,25.12 223.41,17.47 233.73,13.04 Z M 193.01,111.61 C 197.61,114.05 203.05,115.53 206.52,119.67 207.77,124.72 206.89,130.15 208.72,135.11 210,138.11 212.83,140.05 215.55,141.65 221.23,144.88 228.01,147.49 234.56,145.61 238.57,149.15 242.92,152.27 247.47,155.09 245.99,156.25 244.75,157.75 246.09,159.59 251.87,172.92 264.95,180.61 274.77,190.63 273.37,191.69 271.99,192.77 270.61,193.87 252.44,180.17 234.95,165.57 216.65,152.05 203.96,147.87 191.04,144.33 178.05,141.15 174.21,140.15 170.33,139.27 166.43,138.56 167.96,141.43 169.32,144.39 170.36,147.47 175.69,157.04 179.44,167.43 185.23,176.77 202.81,191.04 221.16,204.35 238.71,218.65 231.52,224.52 223.8,229.75 216.77,235.81 214.31,237.47 213.83,241.53 216.56,243.16 220.61,245.67 225.68,243.41 229.29,241.11 266.47,262.96 303.44,285.15 340.8,306.65 350.87,299.91 360.09,292.03 369.75,284.73 385.81,272.01 402.49,260.05 418.12,246.81 415.17,243.15 412.36,239.33 408.93,236.08 384.21,212.13 360.67,187 336.13,162.88 335.6,162.09 334.56,160.53 334.04,159.76 336.43,157.95 338.61,155.29 338.55,152.15 336.89,148.05 331.47,147.49 328.13,149.79 321.13,154.21 314.93,159.81 308.25,164.69 296.68,156.71 285.21,147.99 271.75,143.47 268.93,142.79 265.6,141.31 262.92,143.01 258.83,139.6 254.56,136.43 250.41,133.09 L 251.41,132.35 C 250.69,129.49 250.29,126.56 249.45,123.75 248,121.08 245.92,118.81 244.37,116.2 233,106.03 216.71,106.47 202.43,107.24 198.69,107.09 195.92,109.69 193.01,111.61 Z M 193.01,111.61" />
        </g>
        <g id="f9455dff">
            <path id="bezier3" stroke="none" fill="rgb(244, 43, 75)" d="M 193.01,111.61 C 195.92,109.69 198.69,107.09 202.43,107.24 216.71,106.47 233,106.03 244.37,116.2 240.55,119.64 236.25,122.84 233.81,127.49 231.69,131.07 230.36,135.31 227.09,138.07 223.77,140.53 219.48,140.95 215.55,141.65 212.83,140.05 210,138.11 208.72,135.11 206.89,130.15 207.77,124.72 206.52,119.67 203.05,115.53 197.61,114.05 193.01,111.61 Z M 193.01,111.61" />
        </g>
        <g id="bdc3c7ff">
            <path id="bezier4" stroke="none" fill="rgb(175, 182, 187)" d="M 233.81,127.49 C 236.25,122.84 240.55,119.64 244.37,116.2 245.92,118.81 248,121.08 249.45,123.75 250.29,126.56 250.69,129.49 251.41,132.35 L 250.41,133.09 C 244.91,136.97 240,141.63 234.56,145.61 228.01,147.49 221.23,144.88 215.55,141.65 219.48,140.95 223.77,140.53 227.09,138.07 230.36,135.31 231.69,131.07 233.81,127.49 Z M 233.81,127.49" />
        </g>
        <g id="group5b4e9eff">
            <path id="bezier5" stroke="none" fill="rgb(72, 57, 140)" d="M 234.56,145.61 C 240,141.63 244.91,136.97 250.41,133.09 254.56,136.43 258.83,139.6 262.92,143.01 257.52,146.71 252.33,150.72 247.47,155.09 242.92,152.27 238.57,149.15 234.56,145.61 Z M 234.56,145.61" />
        </g>
        <g id="group242328ff">
            <path id="bezier6" stroke="none" fill="rgb(27, 26, 30)" d="M 166.43,138.56 C 170.33,139.27 174.21,140.15 178.05,141.15 175.52,143.28 172.96,145.39 170.36,147.47 169.32,144.39 167.96,141.43 166.43,138.56 Z M 166.43,138.56" />
        </g>
        <g id="d3c099ff">
            <path id="bezier7" stroke="none" fill="rgb(201, 180, 135)" d="M 178.05,141.15 C 191.04,144.33 203.96,147.87 216.65,152.05 212.99,154.99 209.08,157.63 205.04,160.03 197.39,164.31 192.61,172.08 185.23,176.77 179.44,167.43 175.69,157.04 170.36,147.47 172.96,145.39 175.52,143.28 178.05,141.15 Z M 178.05,141.15" />
        </g>
        <g id="group409ad6ff">
            <path id="bezier8" stroke="none" fill="rgb(52, 135, 204)" d="M 262.92,143.01 C 265.6,141.31 268.93,142.79 271.75,143.47 285.21,147.99 296.68,156.71 308.25,164.69 297.21,173.49 286.03,182.11 274.77,190.63 264.95,180.61 251.87,172.92 246.09,159.59 244.75,157.75 245.99,156.25 247.47,155.09 252.33,150.72 257.52,146.71 262.92,143.01 Z M 262.92,143.01" />
        </g>
        <g id="a18673ff">
            <path id="bezier9" stroke="none" fill="rgb(143, 115, 96)" d="M 328.13,149.79 C 331.47,147.49 336.89,148.05 338.55,152.15 338.61,155.29 336.43,157.95 334.04,159.76 326.92,164.55 319.85,169.41 313.31,174.96 291.4,191.71 269.76,208.77 247.85,225.51 241.24,230.19 235.12,235.48 229.29,241.11 225.68,243.41 220.61,245.67 216.56,243.16 213.83,241.53 214.31,237.47 216.77,235.81 223.8,229.75 231.52,224.52 238.71,218.65 249.45,210.52 260.12,202.31 270.61,193.87 271.99,192.77 273.37,191.69 274.77,190.63 286.03,182.11 297.21,173.49 308.25,164.69 314.93,159.81 321.13,154.21 328.13,149.79 Z M 328.13,149.79" />
        </g>
        <g id="fba63aff">
            <path id="bezier10" stroke="none" fill="rgb(248, 149, 45)" d="M 216.65,152.05 C 234.95,165.57 252.44,180.17 270.61,193.87 260.12,202.31 249.45,210.52 238.71,218.65 221.16,204.35 202.81,191.04 185.23,176.77 192.61,172.08 197.39,164.31 205.04,160.03 209.08,157.63 212.99,154.99 216.65,152.05 Z M 216.65,152.05" />
        </g>
        <g id="group7f6858ff">
            <path id="bezier11" stroke="none" fill="rgb(107, 85, 70)" d="M 313.31,174.96 C 319.85,169.41 326.92,164.55 334.04,159.76 334.56,160.53 335.6,162.09 336.13,162.88 330.56,170.81 321.76,175.37 314.4,181.37 290.55,200.77 265.6,218.76 241.84,238.27 238.47,241.6 233.69,241.67 229.29,241.11 235.12,235.48 241.24,230.19 247.85,225.51 269.76,208.77 291.4,191.71 313.31,174.96 Z M 313.31,174.96" />
        </g>
        <g id="group8c7260ff">
            <path id="bezier12" stroke="none" fill="rgb(121, 95, 78)" d="M 336.13,162.88 C 360.67,187 384.21,212.13 408.93,236.08 412.36,239.33 415.17,243.15 418.12,246.81 402.49,260.05 385.81,272.01 369.75,284.73 360.09,292.03 350.87,299.91 340.8,306.65 303.44,285.15 266.47,262.96 229.29,241.11 233.69,241.67 238.47,241.6 241.84,238.27 265.6,218.76 290.55,200.77 314.4,181.37 321.76,175.37 330.56,170.81 336.13,162.88 Z M 333.01,206.64 C 316.39,220.36 298.48,232.48 282.27,246.71 288.2,251.56 293.88,256.84 300.57,260.64 303.47,262.13 306.2,259.6 308.47,258.09 323.41,246.32 338.44,234.64 353.61,223.17 356.16,221.01 358.49,218.61 360.93,216.35 354.65,211.49 348.99,205.67 341.92,201.93 338.36,201.6 335.75,204.83 333.01,206.64 Z M 333.01,206.64" />
        </g>
        <g id="ecf0f1ff">
            <path id="bezier13" stroke="none" fill="rgb(231, 236, 237)" d="M 333.01,206.64 C 335.75,204.83 338.36,201.6 341.92,201.93 348.99,205.67 354.65,211.49 360.93,216.35 358.49,218.61 356.16,221.01 353.61,223.17 338.44,234.64 323.41,246.32 308.47,258.09 306.2,259.6 303.47,262.13 300.57,260.64 293.88,256.84 288.2,251.56 282.27,246.71 298.48,232.48 316.39,220.36 333.01,206.64 Z M 333.01,206.64" />
        </g>
        <g id="group84b84bff">
            <path id="bezier14" stroke="none" fill="rgb(115, 173, 59)" d="M 44.73,240.05 C 61.49,254.12 79.24,267.01 96.43,280.56 136.24,311.44 176.15,342.2 215.97,373.05 243.15,394.31 281.08,398.88 313.56,388.73 326.81,384.64 338.61,377.05 349.27,368.31 398.31,330.24 447.51,292.36 496.51,254.21 502.43,249.71 508.47,245.31 513.8,240.11 515.4,241.48 516.99,242.89 518.56,244.31 515.21,248.45 511.79,252.6 507.67,256.01 480.75,277.65 453.05,298.28 425.77,319.44 397.79,341.76 369.57,363.79 341.01,385.37 325.53,397.45 305.73,402.73 286.39,403.77 268.59,404.59 250.33,402.35 233.96,395 222.2,389.73 212.49,381.07 202.31,373.37 180.84,357.09 159.56,340.57 138.32,324.01 123.99,313.07 110.35,301.21 95.91,290.39 77.01,275.56 56.72,262.33 39.89,245.04 41.49,243.37 43.11,241.71 44.73,240.05 Z M 44.73,240.05" />
        </g>
        <g id="group9dde56ff">
            <path id="bezier15" stroke="none" fill="rgb(142, 219, 69)" d="M 518.56,244.31 C 523.95,252.84 529.44,261.73 530.76,271.95 531.6,280.37 531.56,289.12 528.83,297.23 525.91,306.15 520.68,314.25 514.17,320.97 506.63,328.27 498.03,334.33 489.75,340.75 440.85,378.53 391.77,416.08 342.91,453.89 324.32,468.2 300.72,475.52 277.35,475.16 262.61,474.6 247.93,471.25 234.49,465.16 223.03,460.01 213.47,451.65 203.53,444.13 159.83,410.51 116.11,376.91 72.39,343.29 62.99,335.85 53.01,329.08 44.37,320.75 33.99,310.32 27.96,295.91 27.07,281.28 27.12,268.15 32.27,255.57 39.89,245.04 56.72,262.33 77.01,275.56 95.91,290.39 110.35,301.21 123.99,313.07 138.32,324.01 159.56,340.57 180.84,357.09 202.31,373.37 212.49,381.07 222.2,389.73 233.96,395 250.33,402.35 268.59,404.59 286.39,403.77 305.73,402.73 325.53,397.45 341.01,385.37 369.57,363.79 397.79,341.76 425.77,319.44 453.05,298.28 480.75,277.65 507.67,256.01 511.79,252.6 515.21,248.45 518.56,244.31 Z M 518.56,244.31" />
        </g>
        <g id="group3aa967ff">
            <path id="bezier16" stroke="none" fill="rgb(49, 156, 84)" d="M 44.37,320.75 C 53.01,329.08 62.99,335.85 72.39,343.29 116.11,376.91 159.83,410.51 203.53,444.13 213.47,451.65 223.03,460.01 234.49,465.16 247.93,471.25 262.61,474.6 277.35,475.16 300.72,475.52 324.32,468.2 342.91,453.89 391.77,416.08 440.85,378.53 489.75,340.75 498.03,334.33 506.63,328.27 514.17,320.97 515.68,322.47 517.17,323.97 518.68,325.49 515.15,329.57 511.53,333.63 507.33,337.04 471.76,365.57 435.05,392.65 399.37,421.05 385.99,431.71 372.37,442.07 358.77,452.45 348.29,460.23 338.49,469.16 326.69,474.96 304,485.35 277.85,487.27 253.56,482.07 241.24,479.55 229.33,474.63 219.19,467.11 180.81,438.05 142.79,408.53 105.17,378.48 87.41,364.17 68.51,351.33 51.09,336.59 47.17,333.17 43.55,329.44 39.97,325.67 41.43,324 42.89,322.37 44.37,320.75 Z M 44.37,320.75" />
        </g>
        <g id="group41c977ff">
            <path id="bezier17" stroke="none" fill="rgb(57, 193, 100)" d="M 27.01,361.32 C 27.27,348.39 32.21,335.91 39.97,325.67 43.55,329.44 47.17,333.17 51.09,336.59 68.51,351.33 87.41,364.17 105.17,378.48 142.79,408.53 180.81,438.05 219.19,467.11 229.33,474.63 241.24,479.55 253.56,482.07 277.85,487.27 304,485.35 326.69,474.96 338.49,469.16 348.29,460.23 358.77,452.45 372.37,442.07 385.99,431.71 399.37,421.05 435.05,392.65 471.76,365.57 507.33,337.04 511.53,333.63 515.15,329.57 518.68,325.49 524.64,333.75 529.64,343.01 530.85,353.27 531.56,362.08 531.51,371.23 528.27,379.59 524.05,391.36 515.85,401.29 506.09,408.96 453.85,449.25 401.56,489.49 349.29,529.75 340.99,536.28 332.49,542.84 322.63,546.84 289.45,561.07 248.41,558.35 219,536.72 163.27,494.23 107.91,451.24 52.21,408.69 37.73,397.36 27.43,379.96 27.01,361.32 Z M 27.01,361.32" />
        </g>
    </g>
</svg>
